<svg width="64" height="54" viewBox="0 0 64 54" fill="none" xmlns="http://www.w3.org/2000/svg">
<path d="M64 14C58.3958 14 52.9062 13.4896 47.5312 12.4688C42.1771 11.4271 36.875 9.91667 31.625 7.9375C26.5 5.97917 21.3229 4.5 16.0938 3.5C10.8646 2.5 5.5 2 0 2V0C5.60417 0 11.0833 0.520833 16.4375 1.5625C21.8125 2.58333 27.125 4.08333 32.375 6.0625C37.5 8.02083 42.6771 9.5 47.9062 10.5C53.1354 11.5 58.5 12 64 12V14ZM0 10C5.70833 10 11.25 10.5208 16.625 11.5625C22.0208 12.5833 27.3854 14.1042 32.7188 16.125C37.8021 18.0417 42.9271 19.5 48.0938 20.5C53.2604 21.5 58.5625 22 64 22V26C58.2917 26 52.7396 25.4896 47.3438 24.4688C41.9688 23.4271 36.6146 21.8958 31.2812 19.875C26.1979 17.9583 21.0729 16.5 15.9062 15.5C10.7396 14.5 5.4375 14 0 14V10ZM64 40C58.25 40 52.6354 39.4792 47.1562 38.4375C41.6771 37.375 36.2604 35.8229 30.9062 33.7812C25.9062 31.8854 20.8438 30.4479 15.7188 29.4688C10.5938 28.4896 5.35417 28 0 28V22C5.75 22 11.3646 22.5312 16.8438 23.5938C22.3229 24.6562 27.7396 26.1979 33.0938 28.2188C38.0938 30.1354 43.1562 31.5833 48.2812 32.5625C53.4062 33.5208 58.6458 34 64 34V40ZM0 34C5.8125 34 11.4896 34.5417 17.0312 35.625C22.5729 36.6875 28.0521 38.2396 33.4688 40.2812C38.4062 42.1562 43.4062 43.5833 48.4688 44.5625C53.5312 45.5208 58.7083 46 64 46V54C58.1875 54 52.5104 53.4688 46.9688 52.4062C41.4271 51.3229 35.9479 49.7604 30.5312 47.7188C25.5938 45.8438 20.5938 44.4271 15.5312 43.4688C10.4688 42.4896 5.29167 42 0 42V34Z" fill="#3C3B3B"/>
</svg>
