<svg width="64" height="28" viewBox="0 0 64 28" fill="none" xmlns="http://www.w3.org/2000/svg">
<path d="M64 0V28H0V0H64ZM16 8.03125H48V4H16V8.03125ZM60 4H52V12H12V4H4V24H60V4ZM10 16C10.5417 16 11.0104 16.1979 11.4062 16.5938C11.8021 16.9896 12 17.4583 12 18C12 18.5417 11.8021 19.0104 11.4062 19.4062C11.0104 19.8021 10.5417 20 10 20C9.45833 20 8.98958 19.8021 8.59375 19.4062C8.19792 19.0104 8 18.5417 8 18C8 17.4583 8.19792 16.9896 8.59375 16.5938C8.98958 16.1979 9.45833 16 10 16ZM18 16C18.5417 16 19.0104 16.1979 19.4062 16.5938C19.8021 16.9896 20 17.4583 20 18C20 18.5417 19.8021 19.0104 19.4062 19.4062C19.0104 19.8021 18.5417 20 18 20C17.4583 20 16.9896 19.8021 16.5938 19.4062C16.1979 19.0104 16 18.5417 16 18C16 17.4583 16.1979 16.9896 16.5938 16.5938C16.9896 16.1979 17.4583 16 18 16Z" fill="#3C3B3B"/>
</svg>
