<svg width="14" height="12" viewBox="0 0 14 12" fill="none" xmlns="http://www.w3.org/2000/svg">
<path d="M14 0.625V8.02148C13.8678 7.91667 13.7288 7.8278 13.583 7.75488C13.4372 7.67741 13.2845 7.61133 13.125 7.55664V1.98535L7 5.05469L0.875 1.98535V8.5H5.6875V9.375H0V0.625H14ZM7 4.07031L12.1475 1.5H1.85254L7 4.07031ZM7.62207 8.9375L9.16699 10.4893L8.55176 11.1045L6.37793 8.9375L8.55176 6.77051L9.16699 7.38574L7.62207 8.9375ZM10.2471 8.5C10.4749 8.5 10.7256 8.49544 10.999 8.48633C11.277 8.47266 11.555 8.47266 11.833 8.48633C12.111 8.5 12.3799 8.53418 12.6396 8.58887C12.8994 8.639 13.1296 8.73014 13.3301 8.8623C13.5352 8.98991 13.6969 9.16536 13.8154 9.38867C13.9385 9.61198 14 9.89909 14 10.25C14 10.4915 13.9521 10.7194 13.8564 10.9336C13.7653 11.1432 13.64 11.3278 13.4805 11.4873C13.3255 11.6423 13.141 11.7676 12.9268 11.8633C12.7126 11.9544 12.487 12 12.25 12V11.125C12.373 11.125 12.487 11.1022 12.5918 11.0566C12.6966 11.0111 12.7878 10.9495 12.8652 10.8721C12.9473 10.79 13.0111 10.6966 13.0566 10.5918C13.1022 10.487 13.125 10.373 13.125 10.25C13.125 10.127 13.1022 10.013 13.0566 9.9082C13.0111 9.80339 12.9473 9.71224 12.8652 9.63477C12.7878 9.55273 12.6966 9.48893 12.5918 9.44336C12.487 9.39779 12.373 9.375 12.25 9.375H10.2471L11.3545 10.4893L10.7393 11.1045L8.57227 8.9375L10.7393 6.77051L11.3545 7.38574L10.2471 8.5Z" fill="white"/>
</svg>
