<svg width="18" height="18" viewBox="0 0 18 18" fill="none" xmlns="http://www.w3.org/2000/svg">
<path d="M9 12.75L9.75 11.25V7.3935C11.0408 7.05825 12 5.8935 12 4.5C12 2.8455 10.6545 1.5 9 1.5C7.3455 1.5 6 2.8455 6 4.5C6 5.8935 6.95925 7.05825 8.25 7.3935V11.25L9 12.75ZM7.5 4.5C7.5 3.67275 8.17275 3 9 3C9.82725 3 10.5 3.67275 10.5 4.5C10.5 5.32725 9.82725 6 9 6C8.17275 6 7.5 5.32725 7.5 4.5Z" fill="black"/>
<path d="M12.2003 7.92224L11.8005 9.36824C13.7438 9.90524 15 10.938 15 12C15 13.419 12.5363 15 9 15C5.46375 15 3 13.419 3 12C3 10.938 4.25625 9.90524 6.20025 9.36749L5.8005 7.92149C3.14775 8.65499 1.5 10.2172 1.5 12C1.5 14.523 4.79475 16.5 9 16.5C13.2053 16.5 16.5 14.523 16.5 12C16.5 10.2172 14.8523 8.65499 12.2003 7.92224Z" fill="black"/>
</svg>
