<svg width="64" height="40" viewBox="0 0 64 40" fill="none" xmlns="http://www.w3.org/2000/svg">
<path d="M59.2812 13.1875L63.0938 21.5938C63.6979 22.9062 64 24.2812 64 25.7188V28C64 28.7917 63.8854 29.5521 63.6562 30.2812C63.4479 31.0104 63.1354 31.6875 62.7188 32.3125C62.3229 32.9375 61.8333 33.5104 61.25 34.0312C60.6667 34.5312 60.0208 34.9375 59.3125 35.25C59 35.9792 58.5833 36.6354 58.0625 37.2188C57.5625 37.8021 56.9896 38.3021 56.3438 38.7188C55.7188 39.1146 55.0312 39.4271 54.2812 39.6562C53.5521 39.8854 52.7917 40 52 40C50.5625 40 49.2292 39.6458 48 38.9375C46.7708 38.2292 45.7917 37.25 45.0625 36H22.9375C22.2083 37.25 21.2292 38.2292 20 38.9375C18.7708 39.6458 17.4375 40 16 40C14.5625 40 13.2292 39.6458 12 38.9375C10.7708 38.2292 9.79167 37.25 9.0625 36H4C3.4375 36 2.91667 35.8958 2.4375 35.6875C1.95833 35.4792 1.53125 35.1979 1.15625 34.8438C0.802083 34.4688 0.520833 34.0417 0.3125 33.5625C0.104167 33.0833 0 32.5625 0 32V24C0 22.3542 0.3125 20.8021 0.9375 19.3438C1.5625 17.8854 2.41667 16.6146 3.5 15.5312C4.60417 14.4271 5.875 13.5625 7.3125 12.9375C8.77083 12.3125 10.3333 12 12 12H13.1562L23.4062 1.75C23.9688 1.1875 24.6146 0.760417 25.3438 0.46875C26.0938 0.15625 26.8646 0 27.6562 0H56V4H55.0938L59.2812 13.1875ZM27.6562 4C27.1146 4 26.6458 4.19792 26.25 4.59375L18.8125 12H36V4H27.6562ZM16 36C16.5625 36 17.0833 35.8958 17.5625 35.6875C18.0417 35.4792 18.4583 35.1979 18.8125 34.8438C19.1875 34.4688 19.4792 34.0417 19.6875 33.5625C19.8958 33.0833 20 32.5625 20 32C20 31.4375 19.8958 30.9167 19.6875 30.4375C19.4792 29.9583 19.1875 29.5417 18.8125 29.1875C18.4583 28.8125 18.0417 28.5208 17.5625 28.3125C17.0833 28.1042 16.5625 28 16 28C15.4375 28 14.9167 28.1042 14.4375 28.3125C13.9583 28.5208 13.5312 28.8125 13.1562 29.1875C12.8021 29.5417 12.5208 29.9583 12.3125 30.4375C12.1042 30.9167 12 31.4375 12 32C12 32.5625 12.1042 33.0833 12.3125 33.5625C12.5208 34.0417 12.8021 34.4688 13.1562 34.8438C13.5312 35.1979 13.9583 35.4792 14.4375 35.6875C14.9167 35.8958 15.4375 36 16 36ZM40 12H54.3438L51.25 5.1875C51.0833 4.83333 50.8333 4.55208 50.5 4.34375C50.1875 4.11458 49.8333 4 49.4375 4H40V12ZM52 36C52.5625 36 53.0833 35.8958 53.5625 35.6875C54.0417 35.4792 54.4583 35.1979 54.8125 34.8438C55.1875 34.4688 55.4792 34.0417 55.6875 33.5625C55.8958 33.0833 56 32.5625 56 32C56 31.4375 55.8958 30.9167 55.6875 30.4375C55.4792 29.9583 55.1875 29.5417 54.8125 29.1875C54.4583 28.8125 54.0417 28.5208 53.5625 28.3125C53.0833 28.1042 52.5625 28 52 28C51.4375 28 50.9167 28.1042 50.4375 28.3125C49.9583 28.5208 49.5312 28.8125 49.1562 29.1875C48.8021 29.5417 48.5208 29.9583 48.3125 30.4375C48.1042 30.9167 48 31.4375 48 32C48 32.5625 48.1042 33.0833 48.3125 33.5625C48.5208 34.0417 48.8021 34.4688 49.1562 34.8438C49.5312 35.1979 49.9583 35.4792 50.4375 35.6875C50.9167 35.8958 51.4375 36 52 36Z" fill="#3C3B3B"/>
</svg>
