<svg width="18" height="18" viewBox="0 0 18 18" fill="none" xmlns="http://www.w3.org/2000/svg">
<path d="M15.4178 4.1959L13.5457 2.32559C13.3172 2.09707 13.0113 1.96875 12.6879 1.96875C12.3645 1.96875 12.0586 2.09531 11.8301 2.32559L9.81387 4.33828C9.58535 4.5668 9.45703 4.87441 9.45703 5.19785C9.45703 5.52305 9.58359 5.82715 9.81387 6.05742L11.3889 7.63418C11.0301 8.47017 10.5145 9.22974 9.87012 9.87187C9.225 10.5205 8.4709 11.032 7.63418 11.3941L6.05918 9.81738C5.83066 9.58887 5.5248 9.46055 5.20137 9.46055C5.04183 9.45996 4.88379 9.49121 4.73649 9.55249C4.58919 9.61376 4.4556 9.70382 4.34355 9.81738L2.32559 11.8301C2.09707 12.0586 1.96875 12.3662 1.96875 12.6896C1.96875 13.0148 2.09531 13.3189 2.32559 13.5492L4.1959 15.4195C4.58613 15.8098 5.12402 16.033 5.67598 16.033C5.79023 16.033 5.90098 16.0242 6.01348 16.0049C8.34082 15.6217 10.6506 14.3824 12.5156 12.5191C14.3789 10.6523 15.6164 8.34258 16.0031 6.01348C16.1139 5.35254 15.8924 4.67227 15.4178 4.1959ZM14.7568 5.8043C14.4141 7.87676 13.2996 9.94395 11.6209 11.6227C9.94219 13.3014 7.87676 14.4158 5.8043 14.7586C5.54414 14.8025 5.27695 14.7146 5.08711 14.5266L3.2502 12.6896L5.19785 10.7402L7.30371 12.8496L7.31953 12.8654L7.69922 12.7248C8.85046 12.3015 9.89589 11.633 10.7631 10.7655C11.6302 9.89803 12.2984 8.85237 12.7213 7.70098L12.8619 7.32129L10.7385 5.19961L12.6861 3.2502L14.523 5.08711C14.7129 5.27695 14.8008 5.54414 14.7568 5.8043Z" fill="black"/>
</svg>
