<svg width="46" height="64" viewBox="0 0 46 64" fill="none" xmlns="http://www.w3.org/2000/svg">
<path d="M40 20C40.8333 20 41.6146 20.1562 42.3438 20.4688C43.0729 20.7812 43.7083 21.2083 44.25 21.75C44.7917 22.2917 45.2188 22.9271 45.5312 23.6562C45.8438 24.3854 46 25.1667 46 26C46 26.8333 45.8438 27.6146 45.5312 28.3438C45.2188 29.0729 44.7917 29.7083 44.25 30.25C43.7083 30.7917 43.0729 31.2188 42.3438 31.5312C41.6146 31.8438 40.8333 32 40 32H30C29.7083 32 29.4271 31.9271 29.1562 31.7812C28.8854 31.6354 28.625 31.4583 28.375 31.25C28.1458 31.0417 27.9167 30.8125 27.6875 30.5625C27.4792 30.3125 27.2812 30.0938 27.0938 29.9062L25.8125 35L35.4062 44.5938C35.8021 44.9896 36 45.4583 36 46V58C36 58.8333 35.8438 59.6146 35.5312 60.3438C35.2188 61.0729 34.7917 61.7083 34.25 62.25C33.7083 62.7917 33.0729 63.2188 32.3438 63.5312C31.6146 63.8438 30.8333 64 30 64C29.1667 64 28.3854 63.8438 27.6562 63.5312C26.9271 63.2188 26.2917 62.7917 25.75 62.25C25.2083 61.7083 24.7812 61.0729 24.4688 60.3438C24.1562 59.6146 24 58.8333 24 58V50.8438L17.1875 44.0312L14.9375 54.2812C14.7708 55.1146 14.6042 55.9479 14.4375 56.7812C14.2708 57.6146 14.0833 58.4479 13.875 59.2812C13.7083 59.9688 13.4375 60.6042 13.0625 61.1875C12.7083 61.7708 12.2708 62.2708 11.75 62.6875C11.25 63.1042 10.6771 63.4271 10.0312 63.6562C9.40625 63.8854 8.72917 64 8 64C7.16667 64 6.38542 63.8438 5.65625 63.5312C4.92708 63.2188 4.29167 62.7917 3.75 62.25C3.20833 61.6875 2.78125 61.0417 2.46875 60.3125C2.15625 59.5833 2 58.8021 2 57.9688C2 57.7604 2.01042 57.5521 2.03125 57.3438C2.05208 57.1354 2.08333 56.9271 2.125 56.7188L5.8125 40C5 39.9792 4.23958 39.8125 3.53125 39.5C2.84375 39.1667 2.22917 38.7292 1.6875 38.1875C1.16667 37.625 0.75 36.9896 0.4375 36.2812C0.145833 35.5729 0 34.8125 0 34V19C0 18.6458 0.09375 18.3021 0.28125 17.9688C0.489583 17.6354 0.760417 17.3854 1.09375 17.2188L9.40625 13.0625C10.3854 12.5833 11.3021 12.2917 12.1562 12.1875C13.0312 12.0625 14 12 15.0625 12C14.3542 10.75 14 9.41667 14 8C14 6.89583 14.2083 5.86458 14.625 4.90625C15.0417 3.92708 15.6146 3.07292 16.3438 2.34375C17.0729 1.61458 17.9167 1.04167 18.875 0.625C19.8542 0.208333 20.8958 0 22 0C23.1042 0 24.1354 0.208333 25.0938 0.625C26.0729 1.04167 26.9271 1.61458 27.6562 2.34375C28.3854 3.07292 28.9583 3.92708 29.375 4.90625C29.7917 5.86458 30 6.89583 30 8C30 8.95833 29.8229 9.89583 29.4688 10.8125C29.1354 11.7083 28.6562 12.5208 28.0312 13.25C28.1354 13.3333 28.2292 13.4167 28.3125 13.5C28.3958 13.5625 28.4896 13.6458 28.5938 13.75L34.8438 20H40ZM18 8C18 8.5625 18.1042 9.08333 18.3125 9.5625C18.5208 10.0417 18.8021 10.4688 19.1562 10.8438C19.5312 11.1979 19.9583 11.4792 20.4375 11.6875C20.9167 11.8958 21.4375 12 22 12C22.5625 12 23.0833 11.8958 23.5625 11.6875C24.0417 11.4792 24.4583 11.1979 24.8125 10.8438C25.1875 10.4688 25.4792 10.0417 25.6875 9.5625C25.8958 9.08333 26 8.5625 26 8C26 7.4375 25.8958 6.91667 25.6875 6.4375C25.4792 5.95833 25.1875 5.54167 24.8125 5.1875C24.4583 4.8125 24.0417 4.52083 23.5625 4.3125C23.0833 4.10417 22.5625 4 22 4C21.4375 4 20.9167 4.10417 20.4375 4.3125C19.9583 4.52083 19.5312 4.8125 19.1562 5.1875C18.8021 5.54167 18.5208 5.95833 18.3125 6.4375C18.1042 6.91667 18 7.4375 18 8ZM40 28C40.5417 28 41.0104 27.8021 41.4062 27.4062C41.8021 27.0104 42 26.5417 42 26C42 25.3333 41.8125 24.8542 41.4375 24.5625C41.0625 24.2708 40.5833 24.0833 40 24C39.4167 23.9167 38.7604 23.9062 38.0312 23.9688C37.3021 24.0104 36.5938 24.0521 35.9062 24.0938C35.2188 24.1146 34.5729 24.0938 33.9688 24.0312C33.3854 23.9479 32.9271 23.7396 32.5938 23.4062L25.75 16.5938C25.3542 16.1979 24.8854 16 24.3438 16H13.875C12.9375 16 12.0521 16.2083 11.2188 16.625L4 20.25V34C4 34.5417 4.19792 35.0104 4.59375 35.4062C4.98958 35.8021 5.45833 36 6 36C6.54167 36 7.01042 35.8021 7.40625 35.4062C7.80208 35.0104 8 34.5417 8 34V25C8 24.6458 8.09375 24.3021 8.28125 23.9688C8.48958 23.6354 8.76042 23.3854 9.09375 23.2188C9.34375 23.0938 9.6875 22.9062 10.125 22.6562C10.5833 22.4062 11.0521 22.1667 11.5312 21.9375C12.0312 21.6875 12.5 21.4688 12.9375 21.2812C13.3958 21.0938 13.75 21 14 21C14.5417 21 15.0104 21.1979 15.4062 21.5938C15.8021 21.9896 16 22.4583 16 23C16 23.3542 15.8958 23.6979 15.6875 24.0312C15.5 24.3646 15.2396 24.6146 14.9062 24.7812L12 26.2188V34C12 34.7917 11.8438 35.5521 11.5312 36.2812C11.2396 37.0104 10.8229 37.6458 10.2812 38.1875L6.0625 57.5625C6.02083 57.7708 6 57.9167 6 58C6 58.5417 6.1875 59.0104 6.5625 59.4062C6.95833 59.8021 7.42708 60 7.96875 60C8.46875 60 8.89583 59.8646 9.25 59.5938C9.60417 59.3021 9.83333 58.9167 9.9375 58.4375C10.6667 55.2917 11.3542 52.1562 12 49.0312C12.6667 45.9062 13.3542 42.7604 14.0625 39.5938C14.1667 39.1354 14.3958 38.7604 14.75 38.4688C15.1042 38.1771 15.5208 38.0312 16 38.0312C16.5625 38.0312 17.0417 38.2292 17.4375 38.625L27.4062 48.5938C27.8021 48.9896 28 49.4583 28 50V58C28 58.5417 28.1979 59.0104 28.5938 59.4062C28.9896 59.8021 29.4583 60 30 60C30.5417 60 31.0104 59.8021 31.4062 59.4062C31.8021 59.0104 32 58.5417 32 58V46.8438L22.1875 37C21.7917 36.6042 21.5938 36.1354 21.5938 35.5938C21.5938 35.4479 21.6458 35.125 21.75 34.625C21.8542 34.125 21.9896 33.5417 22.1562 32.875C22.3229 32.2083 22.5 31.5 22.6875 30.75C22.875 30 23.0625 29.2812 23.25 28.5938C23.4375 27.8854 23.6042 27.2604 23.75 26.7188C23.8958 26.1771 24 25.7812 24.0625 25.5312C24.1667 25.0729 24.3958 24.7083 24.75 24.4375C25.1042 24.1458 25.5208 24 26 24C26.5417 24 27.0104 24.1979 27.4062 24.5938L30.8438 28H40Z" fill="#3C3B3B"/>
</svg>
